<svg xmlns="http://www.w3.org/2000/svg" xmlns:xlink="http://www.w3.org/1999/xlink" width="500" zoomAndPan="magnify" viewBox="0 0 375 374.999991" height="500" preserveAspectRatio="xMidYMid meet" version="1.0"><defs><g/></defs><g fill="#ffde59" fill-opacity="1"><g transform="translate(32.239782, 287.324931)"><g><path d="M 31.453125 3.109375 L 31.453125 -8.5 C 27.429688 -5.75 24.640625 -3.929688 23.078125 -3.046875 C 19.441406 -1.054688 16.25 -0.0625 13.5 -0.0625 C 10.207031 -0.0625 7.378906 -1.265625 5.015625 -3.671875 C 2.597656 -6.171875 1.390625 -9.023438 1.390625 -12.234375 C 1.609375 -15.617188 2.328125 -19.046875 3.546875 -22.515625 C 6.085938 -29.867188 10.296875 -35.257812 16.171875 -38.6875 C 19.085938 -40.414062 22.445312 -41.28125 26.25 -41.28125 C 26.332031 -41.28125 26.414062 -41.28125 26.5 -41.28125 L 28.21875 -41.34375 C 30.164062 -41.34375 31.054688 -40.582031 30.890625 -39.0625 C 27.503906 -38.894531 24.332031 -38.113281 21.375 -36.71875 C 18.414062 -35.320312 15.847656 -33.445312 13.671875 -31.09375 C 11.492188 -28.75 9.78125 -26.015625 8.53125 -22.890625 C 7.28125 -19.765625 6.65625 -16.570312 6.65625 -13.3125 C 6.65625 -10.0625 7.5 -7.71875 9.1875 -6.28125 C 10.882812 -4.84375 13.066406 -4.125 15.734375 -4.125 C 18.015625 -4.125 21.179688 -5.117188 25.234375 -7.109375 C 27.816406 -8.367188 29.742188 -9.804688 31.015625 -11.421875 C 31.648438 -12.179688 31.96875 -12.984375 31.96875 -13.828125 L 31.96875 -23.203125 C 30.695312 -23.203125 27.742188 -22.71875 23.109375 -21.75 C 18.484375 -20.78125 15.8125 -20.234375 15.09375 -20.109375 C 14.882812 -20.234375 14.628906 -20.367188 14.328125 -20.515625 C 14.035156 -20.660156 13.867188 -20.882812 13.828125 -21.1875 C 13.742188 -21.8125 14.671875 -22.78125 16.609375 -24.09375 C 17.078125 -24.351562 19.867188 -24.851562 24.984375 -25.59375 C 30.097656 -26.332031 33.351562 -26.804688 34.75 -27.015625 C 36.144531 -27.222656 37.304688 -27.390625 38.234375 -27.515625 C 38.660156 -27.429688 39.191406 -27.441406 39.828125 -27.546875 C 40.460938 -27.660156 41.050781 -27.695312 41.59375 -27.65625 C 42.945312 -27.601562 43.582031 -26.859375 43.5 -25.421875 L 38.234375 -23.28125 C 37.429688 -20.695312 37.03125 -15.832031 37.03125 -8.6875 L 37.15625 0.765625 C 37.15625 1.609375 37.15625 2.390625 37.15625 3.109375 C 35.894531 3.742188 34.671875 4.0625 33.484375 4.0625 C 32.296875 4.0625 31.617188 3.742188 31.453125 3.109375 Z M 31.453125 3.109375 "/></g></g><g transform="translate(77.197715, 287.324931)"><g><path d="M 14.65625 -4.4375 C 18.375 -4.4375 23.972656 -6.128906 31.453125 -9.515625 C 31.921875 -9.515625 32.300781 -9.351562 32.59375 -9.03125 C 32.894531 -8.71875 33.046875 -8.347656 33.046875 -7.921875 C 31.347656 -5.046875 28.109375 -2.804688 23.328125 -1.203125 C 18.554688 0.398438 14.097656 0.675781 9.953125 -0.375 C 5.265625 -1.601562 2.410156 -4.25 1.390625 -8.3125 C 1.304688 -9.113281 1.265625 -10.191406 1.265625 -11.546875 C 1.265625 -12.898438 1.613281 -14.6875 2.3125 -16.90625 C 3.007812 -19.125 4.203125 -21.222656 5.890625 -23.203125 C 7.585938 -25.191406 9.578125 -26.753906 11.859375 -27.890625 C 14.140625 -29.035156 16.570312 -29.609375 19.15625 -29.609375 C 21.601562 -29.609375 24.347656 -28.765625 27.390625 -27.078125 C 28.828125 -26.273438 29.96875 -25.363281 30.8125 -24.34375 C 31.664062 -23.332031 32.09375 -22.300781 32.09375 -21.25 C 32.09375 -20.945312 32.070312 -20.648438 32.03125 -20.359375 C 31.9375 -17.773438 30.6875 -16.144531 28.28125 -15.46875 C 27.226562 -15.175781 26.003906 -15.03125 24.609375 -15.03125 L 15.46875 -15.40625 C 12.425781 -15.40625 10.101562 -14.75 8.5 -13.4375 C 7.570312 -12.71875 6.914062 -11.640625 6.53125 -10.203125 C 7.59375 -6.359375 10.300781 -4.4375 14.65625 -4.4375 Z M 25.96875 -24.03125 C 25.019531 -24.707031 24.035156 -25.191406 23.015625 -25.484375 C 22.003906 -25.785156 21.160156 -25.9375 20.484375 -25.9375 C 19.804688 -25.9375 18.707031 -25.710938 17.1875 -25.265625 C 15.664062 -24.828125 14.3125 -24.332031 13.125 -23.78125 C 10.207031 -22.425781 8.75 -21.007812 8.75 -19.53125 C 12.132812 -19.238281 14.671875 -19.09375 16.359375 -19.09375 C 21.054688 -19.09375 24.226562 -19.492188 25.875 -20.296875 C 26.882812 -20.710938 27.390625 -21.238281 27.390625 -21.875 C 27.390625 -22.632812 26.914062 -23.351562 25.96875 -24.03125 Z M 25.96875 -24.03125 "/></g></g><g transform="translate(112.327045, 287.324931)"><g><path d="M 14.65625 -4.4375 C 18.375 -4.4375 23.972656 -6.128906 31.453125 -9.515625 C 31.921875 -9.515625 32.300781 -9.351562 32.59375 -9.03125 C 32.894531 -8.71875 33.046875 -8.347656 33.046875 -7.921875 C 31.347656 -5.046875 28.109375 -2.804688 23.328125 -1.203125 C 18.554688 0.398438 14.097656 0.675781 9.953125 -0.375 C 5.265625 -1.601562 2.410156 -4.25 1.390625 -8.3125 C 1.304688 -9.113281 1.265625 -10.191406 1.265625 -11.546875 C 1.265625 -12.898438 1.613281 -14.6875 2.3125 -16.90625 C 3.007812 -19.125 4.203125 -21.222656 5.890625 -23.203125 C 7.585938 -25.191406 9.578125 -26.753906 11.859375 -27.890625 C 14.140625 -29.035156 16.570312 -29.609375 19.15625 -29.609375 C 21.601562 -29.609375 24.347656 -28.765625 27.390625 -27.078125 C 28.828125 -26.273438 29.96875 -25.363281 30.8125 -24.34375 C 31.664062 -23.332031 32.09375 -22.300781 32.09375 -21.25 C 32.09375 -20.945312 32.070312 -20.648438 32.03125 -20.359375 C 31.9375 -17.773438 30.6875 -16.144531 28.28125 -15.46875 C 27.226562 -15.175781 26.003906 -15.03125 24.609375 -15.03125 L 15.46875 -15.40625 C 12.425781 -15.40625 10.101562 -14.75 8.5 -13.4375 C 7.570312 -12.71875 6.914062 -11.640625 6.53125 -10.203125 C 7.59375 -6.359375 10.300781 -4.4375 14.65625 -4.4375 Z M 25.96875 -24.03125 C 25.019531 -24.707031 24.035156 -25.191406 23.015625 -25.484375 C 22.003906 -25.785156 21.160156 -25.9375 20.484375 -25.9375 C 19.804688 -25.9375 18.707031 -25.710938 17.1875 -25.265625 C 15.664062 -24.828125 14.3125 -24.332031 13.125 -23.78125 C 10.207031 -22.425781 8.75 -21.007812 8.75 -19.53125 C 12.132812 -19.238281 14.671875 -19.09375 16.359375 -19.09375 C 21.054688 -19.09375 24.226562 -19.492188 25.875 -20.296875 C 26.882812 -20.710938 27.390625 -21.238281 27.390625 -21.875 C 27.390625 -22.632812 26.914062 -23.351562 25.96875 -24.03125 Z M 25.96875 -24.03125 "/></g></g><g transform="translate(147.456376, 287.324931)"><g><path d="M 7.984375 -11.546875 L 8.3125 -6.03125 C 8.3125 -2.644531 7.503906 -0.59375 5.890625 0.125 C 5.554688 0.25 5.15625 0.3125 4.6875 0.3125 C 4.226562 0.3125 3.679688 0.207031 3.046875 0 L 3.109375 -23.71875 C 3.109375 -27.144531 2.90625 -30.578125 2.5 -34.015625 C 2.101562 -37.460938 1.90625 -40.898438 1.90625 -44.328125 C 1.90625 -45.679688 2.625 -46.359375 4.0625 -46.359375 L 4.5625 -46.359375 C 4.863281 -46.359375 5.054688 -46.335938 5.140625 -46.296875 C 5.773438 -43.671875 6.195312 -40.5 6.40625 -36.78125 C 6.875 -28.539062 7.296875 -23.003906 7.671875 -20.171875 C 8.390625 -20.546875 9.992188 -21.617188 12.484375 -23.390625 C 14.984375 -25.171875 16.992188 -26.597656 18.515625 -27.671875 C 20.035156 -28.753906 21.472656 -29.757812 22.828125 -30.6875 C 25.992188 -32.757812 27.984375 -33.796875 28.796875 -33.796875 C 29.472656 -33.796875 30 -33.394531 30.375 -32.59375 C 28.257812 -29.925781 24.859375 -26.96875 20.171875 -23.71875 C 18.265625 -22.40625 16.367188 -21.101562 14.484375 -19.8125 C 12.609375 -18.53125 10.890625 -17.191406 9.328125 -15.796875 C 12.160156 -15.035156 14.84375 -14.238281 17.375 -13.40625 C 19.914062 -12.582031 22.367188 -11.832031 24.734375 -11.15625 C 30.179688 -9.550781 34.875 -8.644531 38.8125 -8.4375 C 38.8125 -7.289062 38.707031 -6.550781 38.5 -6.21875 C 38.113281 -5.625 37.328125 -5.285156 36.140625 -5.203125 L 35.640625 -5.203125 C 33.054688 -5.921875 29.628906 -6.722656 25.359375 -7.609375 C 16.953125 -9.335938 11.160156 -10.648438 7.984375 -11.546875 Z M 7.984375 -11.546875 "/></g></g><g transform="translate(187.341482, 287.324931)"><g><path d="M 7.421875 -29.8125 C 7.972656 -21.90625 8.4375 -12.75 8.8125 -2.34375 C 8.5625 -1.03125 7.546875 -0.375 5.765625 -0.375 C 5.304688 -0.375 4.832031 -0.46875 4.34375 -0.65625 C 3.851562 -0.851562 3.546875 -1.117188 3.421875 -1.453125 L 3.421875 -29.8125 Z M 1.515625 -38.4375 C 1.515625 -39.914062 2.382812 -40.65625 4.125 -40.65625 C 5.257812 -40.65625 6.1875 -40.398438 6.90625 -39.890625 C 7.039062 -39.421875 7.109375 -38.960938 7.109375 -38.515625 C 7.109375 -38.078125 6.9375 -37.644531 6.59375 -37.21875 C 6.257812 -36.800781 5.753906 -36.59375 5.078125 -36.59375 C 4.398438 -36.59375 3.722656 -36.75 3.046875 -37.0625 C 2.367188 -37.382812 1.859375 -37.84375 1.515625 -38.4375 Z M 1.515625 -38.4375 "/></g></g><g transform="translate(197.170085, 287.324931)"><g><path d="M 23.40625 -16.359375 C 28.050781 -16.359375 30.375 -15.175781 30.375 -12.8125 C 30.375 -11.03125 29.082031 -8.957031 26.5 -6.59375 C 22.65625 -3.082031 17.476562 -0.269531 10.96875 1.84375 C 10.675781 1.84375 10.347656 1.546875 9.984375 0.953125 C 9.628906 0.359375 9.351562 -0.09375 9.15625 -0.40625 C 8.96875 -0.726562 8.832031 -0.929688 8.75 -1.015625 C 13.613281 -2.617188 17.609375 -4.5625 20.734375 -6.84375 C 22.847656 -8.363281 23.90625 -9.609375 23.90625 -10.578125 C 23.90625 -11.554688 22.65625 -12.046875 20.15625 -12.046875 C 17.664062 -12.046875 14.007812 -11.453125 9.1875 -10.265625 C 6.988281 -10.359375 5.085938 -11.144531 3.484375 -12.625 C 2.085938 -13.925781 1.390625 -15.242188 1.390625 -16.578125 C 1.390625 -17.910156 1.769531 -19.132812 2.53125 -20.25 C 3.289062 -21.375 4.304688 -22.421875 5.578125 -23.390625 C 6.847656 -24.367188 8.328125 -25.257812 10.015625 -26.0625 C 14.160156 -28.050781 18.453125 -29.046875 22.890625 -29.046875 C 24.203125 -29.046875 25.472656 -28.914062 26.703125 -28.65625 C 27.710938 -28.65625 28.300781 -28.210938 28.46875 -27.328125 C 28.644531 -26.441406 28.734375 -24.984375 28.734375 -22.953125 C 26.234375 -24.097656 23.421875 -24.671875 20.296875 -24.671875 C 16.398438 -24.671875 13.1875 -23.890625 10.65625 -22.328125 C 8.03125 -20.804688 6.675781 -18.816406 6.59375 -16.359375 C 6.59375 -15.171875 7.457031 -14.578125 9.1875 -14.578125 L 13.828125 -15.09375 C 17.796875 -15.9375 20.988281 -16.359375 23.40625 -16.359375 Z M 23.40625 -16.359375 "/></g></g><g transform="translate(229.763002, 287.324931)"><g><path d="M 11.28125 -6.09375 L 11.421875 -16.234375 C 11.421875 -17.835938 11.269531 -19.210938 10.96875 -20.359375 L 1.140625 -20.359375 L 1.015625 -24.734375 L 10.53125 -24.734375 L 10.53125 -41.09375 C 10.65625 -41.46875 10.90625 -41.847656 11.28125 -42.234375 C 11.875 -42.828125 12.367188 -43.125 12.765625 -43.125 C 13.171875 -43.125 13.519531 -43.082031 13.8125 -43 C 14.113281 -42.914062 14.4375 -42.617188 14.78125 -42.109375 C 15.457031 -39.316406 15.796875 -35.109375 15.796875 -29.484375 C 15.796875 -28.085938 15.859375 -26.710938 15.984375 -25.359375 C 17.335938 -25.535156 18.691406 -25.625 20.046875 -25.625 C 20.046875 -25.625 21.144531 -25.625 23.34375 -25.625 C 24.144531 -25.625 24.882812 -25.664062 25.5625 -25.75 L 25.359375 -21.1875 L 16.109375 -21.4375 L 16.421875 0.4375 C 15.660156 0.78125 15.003906 0.953125 14.453125 0.953125 C 12.335938 0.953125 11.28125 -1.394531 11.28125 -6.09375 Z M 11.28125 -6.09375 "/></g></g><g transform="translate(256.014884, 287.324931)"><g><path d="M 2.921875 0.0625 C 1.941406 -0.0195312 1.453125 -0.441406 1.453125 -1.203125 C 1.453125 -2.128906 1.984375 -3 3.046875 -3.8125 C 3.460938 -4.101562 3.785156 -4.25 4.015625 -4.25 C 4.253906 -4.25 4.4375 -4.226562 4.5625 -4.1875 C 5.445312 -4.1875 6.046875 -4.003906 6.359375 -3.640625 C 6.679688 -3.285156 6.84375 -2.8125 6.84375 -2.21875 C 6.84375 -1.625 6.71875 -1.175781 6.46875 -0.875 C 6.21875 -0.582031 5.898438 -0.375 5.515625 -0.25 C 4.878906 -0.0390625 4.015625 0.0625 2.921875 0.0625 Z M 2.921875 0.0625 "/></g></g><g transform="translate(265.145974, 287.324931)"><g><path d="M 27.359375 -6.6875 C 29.078125 -7.382812 30.757812 -8.03125 32.40625 -8.625 C 34.050781 -9.21875 35.625 -9.515625 37.125 -9.515625 C 38.625 -9.515625 39.375 -9.050781 39.375 -8.125 C 39.375 -7.90625 39.320312 -7.570312 39.21875 -7.125 C 39.113281 -6.6875 38.539062 -6.160156 37.5 -5.546875 C 36.46875 -4.929688 35.203125 -4.347656 33.703125 -3.796875 C 32.203125 -3.253906 30.5625 -2.75 28.78125 -2.28125 C 27.007812 -1.8125 25.28125 -1.410156 23.59375 -1.078125 C 20.082031 -0.359375 17.585938 0 16.109375 0 C 14.628906 0 13.03125 -0.164062 11.3125 -0.5 C 9.601562 -0.84375 8.007812 -1.394531 6.53125 -2.15625 C 3.101562 -3.925781 1.390625 -6.546875 1.390625 -10.015625 C 1.390625 -10.273438 1.390625 -10.785156 1.390625 -11.546875 C 1.390625 -12.304688 1.707031 -13.394531 2.34375 -14.8125 C 2.976562 -16.226562 3.929688 -17.644531 5.203125 -19.0625 C 6.472656 -20.476562 7.953125 -21.773438 9.640625 -22.953125 C 13.191406 -25.492188 16.910156 -27.144531 20.796875 -27.90625 C 22.148438 -28.195312 23.28125 -28.34375 24.1875 -28.34375 C 25.101562 -28.34375 25.851562 -28.332031 26.4375 -28.3125 C 27.03125 -28.289062 27.644531 -28.25 28.28125 -28.1875 C 28.914062 -28.125 29.46875 -27.96875 29.9375 -27.71875 C 31.03125 -27.164062 31.578125 -26.085938 31.578125 -24.484375 C 31.578125 -23.460938 30.859375 -22.46875 29.421875 -21.5 C 29.046875 -21.25 28.707031 -21.015625 28.40625 -20.796875 C 28.195312 -21.773438 27.921875 -22.597656 27.578125 -23.265625 C 27.242188 -23.941406 26.503906 -24.28125 25.359375 -24.28125 C 20.378906 -23.226562 16.09375 -21.644531 12.5 -19.53125 C 8.4375 -17.125 6.40625 -14.585938 6.40625 -11.921875 C 6.40625 -11.628906 6.425781 -11.3125 6.46875 -10.96875 C 6.46875 -8.257812 7.503906 -6.335938 9.578125 -5.203125 C 11.140625 -4.359375 13.15625 -3.9375 15.625 -3.9375 C 18.101562 -3.9375 20.25 -4.21875 22.0625 -4.78125 C 23.882812 -5.351562 25.648438 -5.988281 27.359375 -6.6875 Z M 27.359375 -6.6875 "/></g></g><g transform="translate(306.235876, 287.324931)"><g><path d="M 3.296875 -12.046875 C 3.296875 -17.035156 5.453125 -21.050781 9.765625 -24.09375 C 13.191406 -26.507812 17.3125 -27.96875 22.125 -28.46875 C 22.382812 -28.46875 22.976562 -28.46875 23.90625 -28.46875 C 24.832031 -28.46875 26.082031 -28.195312 27.65625 -27.65625 C 31.113281 -26.46875 33.476562 -24.375 34.75 -21.375 C 35.257812 -20.1875 35.515625 -19.179688 35.515625 -18.359375 C 35.515625 -17.535156 35.492188 -16.953125 35.453125 -16.609375 C 35.453125 -11.328125 33.441406 -7.164062 29.421875 -4.125 C 25.703125 -1.332031 21.050781 0.0625 15.46875 0.0625 C 11.457031 0.0625 8.425781 -0.863281 6.375 -2.71875 C 4.320312 -4.582031 3.296875 -7.691406 3.296875 -12.046875 Z M 7.671875 -10.53125 C 7.671875 -7.90625 8.367188 -6.128906 9.765625 -5.203125 C 10.816406 -4.523438 12.585938 -4.1875 15.078125 -4.1875 C 17.578125 -4.1875 19.78125 -4.375 21.6875 -4.75 C 23.59375 -5.132812 25.285156 -5.789062 26.765625 -6.71875 C 29.929688 -8.75 31.515625 -11.898438 31.515625 -16.171875 C 31.515625 -18.703125 30.835938 -20.773438 29.484375 -22.390625 C 28.003906 -24.117188 26.0625 -24.984375 23.65625 -24.984375 C 22.007812 -24.691406 20.347656 -24.375 18.671875 -24.03125 C 17.003906 -23.695312 15.429688 -23.039062 13.953125 -22.0625 C 10.734375 -20 8.640625 -16.15625 7.671875 -10.53125 Z M 7.671875 -10.53125 "/></g></g></g><g fill="#ffde59" fill-opacity="1"><g transform="translate(65.000751, 200.478143)"><g><path d="M 119.3125 -152.265625 C 119.613281 -152.566406 120.21875 -152.71875 121.125 -152.71875 L 122.71875 -152.71875 L 122.71875 -90 L 119.546875 -90 L 116.359375 -90.21875 L 114.765625 -95.453125 C 113.253906 -100.597656 111.132812 -106.160156 108.40625 -112.140625 C 105.675781 -118.128906 102.378906 -123.660156 98.515625 -128.734375 C 94.648438 -133.816406 90.21875 -138.023438 85.21875 -141.359375 C 80.21875 -144.691406 74.535156 -146.359375 68.171875 -146.359375 C 60.597656 -146.359375 54.273438 -144.578125 49.203125 -141.015625 C 44.128906 -137.453125 40 -132.941406 36.8125 -127.484375 C 33.632812 -122.035156 31.285156 -115.976562 29.765625 -109.3125 C 28.253906 -102.644531 27.117188 -96.128906 26.359375 -89.765625 C 25.753906 -84.460938 25.410156 -79.046875 25.328125 -73.515625 C 25.253906 -67.984375 25.445312 -62.414062 25.90625 -56.8125 C 27.113281 -37.875 30.75 -22.609375 36.8125 -11.015625 C 42.875 0.566406 50.753906 7.570312 60.453125 10 C 61.359375 10.300781 62.566406 10.523438 64.078125 10.671875 C 65.597656 10.828125 67.191406 10.90625 68.859375 10.90625 C 73.398438 10.90625 77.753906 10.375 81.921875 9.3125 C 86.085938 8.257812 89.875 6.671875 93.28125 4.546875 C 96.695312 2.421875 99.578125 -0.34375 101.921875 -3.75 C 104.273438 -7.15625 105.832031 -11.207031 106.59375 -15.90625 C 106.738281 -16.96875 106.847656 -19.015625 106.921875 -22.046875 C 107.003906 -25.078125 107.046875 -29.164062 107.046875 -34.3125 C 107.046875 -39.46875 107.003906 -43.484375 106.921875 -46.359375 C 106.847656 -49.242188 106.738281 -51.0625 106.59375 -51.8125 C 105.976562 -54.84375 104.875 -57.039062 103.28125 -58.40625 C 101.695312 -59.769531 98.859375 -61.285156 94.765625 -62.953125 C 92.953125 -63.554688 91.851562 -64.007812 91.46875 -64.3125 C 91.09375 -64.613281 90.828125 -65.070312 90.671875 -65.6875 L 90.671875 -67.046875 L 94.765625 -67.265625 C 96.285156 -67.421875 98.597656 -67.5 101.703125 -67.5 C 104.804688 -67.5 108.78125 -67.5 113.625 -67.5 C 118.476562 -67.5 122.304688 -67.5 125.109375 -67.5 C 127.910156 -67.5 129.765625 -67.421875 130.671875 -67.265625 C 132.191406 -67.117188 133.0625 -66.96875 133.28125 -66.8125 C 133.507812 -66.664062 133.625 -66.363281 133.625 -65.90625 C 133.625 -65.300781 133.507812 -64.882812 133.28125 -64.65625 C 133.0625 -64.425781 132.421875 -64.160156 131.359375 -63.859375 C 125.597656 -62.046875 122.113281 -59.546875 120.90625 -56.359375 C 120.75 -55.753906 120.632812 -53.59375 120.5625 -49.875 C 120.488281 -46.164062 120.453125 -40.753906 120.453125 -33.640625 C 120.453125 -19.546875 120.148438 -11.96875 119.546875 -10.90625 C 115.597656 -3.476562 110.140625 2.539062 103.171875 7.15625 C 96.203125 11.78125 88.628906 14.925781 80.453125 16.59375 C 77.421875 17.351562 73.484375 17.734375 68.640625 17.734375 C 63.484375 17.734375 59.769531 17.503906 57.5 17.046875 C 47.800781 14.921875 39.882812 10.828125 33.75 4.765625 C 27.613281 -1.285156 22.800781 -8.363281 19.3125 -16.46875 C 15.832031 -24.582031 13.445312 -33.222656 12.15625 -42.390625 C 10.875 -51.554688 10.234375 -60.304688 10.234375 -68.640625 C 10.234375 -75.753906 10.757812 -83.285156 11.8125 -91.234375 C 12.875 -99.191406 14.769531 -106.84375 17.5 -114.1875 C 20.226562 -121.539062 23.898438 -128.25 28.515625 -134.3125 C 33.140625 -140.375 39.015625 -145.144531 46.140625 -148.625 C 53.253906 -151.957031 60.144531 -153.625 66.8125 -153.625 C 75 -153.625 82.84375 -151.578125 90.34375 -147.484375 C 97.84375 -143.398438 104.015625 -138.253906 108.859375 -132.046875 C 111.128906 -129.460938 112.644531 -128.171875 113.40625 -128.171875 C 114.3125 -128.171875 114.992188 -129.3125 115.453125 -131.59375 C 115.898438 -133.707031 116.390625 -136.164062 116.921875 -138.96875 C 117.453125 -141.769531 118.019531 -145.066406 118.625 -148.859375 C 118.9375 -150.679688 119.164062 -151.816406 119.3125 -152.265625 Z M 119.3125 -152.265625 "/></g></g></g><g fill="#ffde59" fill-opacity="1"><g transform="translate(184.954066, 200.478143)"><g><path d="M 17.265625 -157.5 C 25.753906 -160.21875 30 -161.578125 30 -161.578125 C 30.300781 -161.890625 30.453125 -156.664062 30.453125 -145.90625 L 30.453125 -106.359375 L 30.6875 -53.859375 L 50 -69.3125 C 56.363281 -74.3125 61.132812 -78.328125 64.3125 -81.359375 C 67.5 -84.390625 69.394531 -86.285156 70 -87.046875 C 73.632812 -91.128906 73.484375 -94.992188 69.546875 -98.640625 C 67.722656 -100.304688 64.691406 -101.894531 60.453125 -103.40625 C 59.992188 -103.707031 59.84375 -104.007812 60 -104.3125 C 60.300781 -104.769531 61.363281 -105 63.1875 -105 C 64.09375 -105 66.628906 -105 70.796875 -105 C 74.960938 -105 80.753906 -105.070312 88.171875 -105.21875 C 101.359375 -105.375 108.253906 -105.375 108.859375 -105.21875 C 110.828125 -104.769531 109.765625 -103.484375 105.671875 -101.359375 C 103.097656 -100.148438 100.179688 -98.484375 96.921875 -96.359375 C 93.671875 -94.234375 89.921875 -91.660156 85.671875 -88.640625 C 82.648438 -86.515625 79.015625 -83.707031 74.765625 -80.21875 C 70.523438 -76.738281 65.070312 -72.269531 58.40625 -66.8125 C 52.039062 -61.507812 47.078125 -57.457031 43.515625 -54.65625 C 39.960938 -51.851562 38.1875 -50.375 38.1875 -50.21875 C 38.1875 -50.21875 48.257812 -40.296875 68.40625 -20.453125 C 74.769531 -14.242188 80.035156 -9.09375 84.203125 -5 C 88.367188 -0.90625 91.515625 2.046875 93.640625 3.859375 C 95.753906 5.828125 97.796875 7.457031 99.765625 8.75 C 101.734375 10.039062 103.703125 11.140625 105.671875 12.046875 C 108.554688 13.554688 110 14.617188 110 15.234375 L 110 16.359375 L 64.546875 16.359375 L 64.546875 15.234375 C 64.546875 14.472656 65.078125 14.015625 66.140625 13.859375 C 66.585938 13.710938 67.148438 13.445312 67.828125 13.0625 C 68.515625 12.6875 69.238281 12.347656 70 12.046875 C 70.757812 11.585938 71.78125 10.828125 73.0625 9.765625 C 74.351562 8.710938 75.148438 7.804688 75.453125 7.046875 C 76.210938 5.679688 76.550781 4.28125 76.46875 2.84375 C 76.394531 1.40625 76.054688 0.226562 75.453125 -0.6875 C 74.992188 -1.4375 72.945312 -3.78125 69.3125 -7.71875 C 65.675781 -11.664062 60.144531 -17.273438 52.71875 -24.546875 L 30.6875 -45.6875 L 30.453125 -23.1875 C 30.453125 -16.519531 30.488281 -11.328125 30.5625 -7.609375 C 30.644531 -3.898438 30.757812 -1.59375 30.90625 -0.6875 C 31.664062 3.707031 33.21875 6.890625 35.5625 8.859375 C 37.914062 10.828125 41.132812 12.421875 45.21875 13.640625 C 46.582031 14.085938 47.265625 14.617188 47.265625 15.234375 L 47.265625 16.359375 L 24.546875 16.140625 C 19.242188 16.285156 15 16.320312 11.8125 16.25 C 8.632812 16.175781 6.441406 16.140625 5.234375 16.140625 C 2.953125 15.984375 1.8125 15.679688 1.8125 15.234375 C 1.8125 14.617188 3.40625 13.707031 6.59375 12.5 C 10.070312 11.132812 12.53125 9.804688 13.96875 8.515625 C 15.414062 7.234375 16.671875 5.457031 17.734375 3.1875 L 18.640625 0.453125 L 18.640625 -70 C 18.640625 -117.269531 18.410156 -141.660156 17.953125 -143.171875 C 17.046875 -145.898438 15.910156 -147.796875 14.546875 -148.859375 C 13.179688 -149.921875 11.210938 -150.453125 8.640625 -150.453125 C 6.210938 -150.148438 4.394531 -149.847656 3.1875 -149.546875 C 1.96875 -149.242188 1.171875 -149.164062 0.796875 -149.3125 C 0.421875 -149.46875 0.234375 -150 0.234375 -150.90625 L 0.234375 -151.125 C 0.234375 -151.582031 0.535156 -151.890625 1.140625 -152.046875 C 1.585938 -152.347656 2.910156 -152.875 5.109375 -153.625 C 7.304688 -154.382812 10.375 -155.375 14.3125 -156.59375 L 14.546875 -156.59375 L 14.765625 -156.8125 L 15.453125 -156.8125 L 15.6875 -157.046875 L 16.140625 -157.046875 L 16.359375 -157.265625 L 16.8125 -157.265625 L 17.046875 -157.5 Z M 17.265625 -157.5 "/></g></g></g></svg>